<?xml version="1.0" encoding="utf-8"?>
<!-- Generator: Adobe Illustrator 26.3.1, SVG Export Plug-In . SVG Version: 6.00 Build 0)  -->
<svg version="1.1" id="Layer_1" xmlns="http://www.w3.org/2000/svg" xmlns:xlink="http://www.w3.org/1999/xlink" x="0px" y="0px" viewBox="0 0 30 30" style="enable-background:new 0 0 30 30;" xml:space="preserve">
	<g id="svgGroup">
		<path vector-effect="non-scaling-stroke" fill="#fff" d="M2.1,6.1L1.2,6H0.8L0.7,6.1v0.1v0.1v0.2l0.1,0.5C0.8,7,1,7.3,1.4,7.7l0.1,0.1l0.9,0.9
		l0.9,0.9h0.1c0.1,0,0.2,0.1,0.3,0.2l0.1,0.1C3.9,10,4.1,10,4.1,10l0.5,0.3l0.3,0.2c0.5,0.2,0.8,0.4,1.1,0.5c0.1,0,0.1,0,0.2,0
		c0.2,0,0.3,0,0.5,0.1h0.1c0.2,0.1,0.3,0.2,0.5,0.2l0,0h0.6v-0.2L8,10.9c0.1-0.1,0.2-0.1,0.2-0.2c0.1,0,0.1-0.1,0.2-0.1
		c0,0,0.1,0,0.1-0.1c0.2-0.1,0.2-0.2,0.3-0.2l0.6-0.5l0.5-0.3l0,0c0.1,0,0.2-0.1,0.2-0.2c0,0,0.1,0,0.1-0.1l0.4-0.2l0.3-0.2
		c0.2,0,0.5-0.2,1-0.5c0.2-0.1,0.4-0.2,0.6-0.2h0.5L13,8.7l0.8,0.6l0.3,0.2l0.3,0.5l0.8,0.9l0.1,0.2l0.1,0.2c0,0.2,0.2,0.8,0.2,1.6
		c0,0.2,0,0.3,0,0.5l0.1,1.2v0.8v5.4c0,0.2,0,0.5-0.1,0.7c0,0,0,0.1-0.1,0.1c-0.1,0.2-0.2,0.3-0.2,0.5c0,0.1,0,0.2,0,0.2v0.1v0.1
		l0,0l0,0l-0.1,0.2c-0.2,0.2-0.3,0.5-0.3,0.7l-0.2,0.2c0,0,0,0-0.1,0.1s-0.2,0.2-0.2,0.2l0,0l-0.2,0.1l-0.1,0.1
		c-0.1,0.1-0.2,0.1-0.2,0.1l-0.6,0.2h-0.8L12,24l-0.7-0.1c-0.2,0-0.3,0-0.5-0.2h-0.1c-0.2-0.1-0.5-0.2-0.7-0.2H9.9
		c-0.2,0-0.3,0-0.5-0.2c-0.2-0.1-0.3-0.2-0.5-0.2l0,0c-0.1,0-0.2,0-0.3-0.1c-0.1,0-0.1,0-0.2-0.1L8.2,23L8,22.9l-0.8-0.5
		c-0.1,0-0.1-0.1-0.2-0.1c-0.1,0-0.1-0.1-0.2-0.1l-0.5-0.5l-0.5-0.4H5.8v0.4L6,22l0.3,0.5l0.2,0.3l1.7,1.7l0.3,0.2l0.9,0.8l0.3,0.3
		L9.9,26l0.3,0.2c0.1,0.1,0.1,0.1,0.2,0.2c0.2,0.2,0.2,0.2,0.4,0.2c0.1,0.1,0.2,0.2,0.4,0.2c0.1,0,0.2,0.1,0.5,0.2l0.6,0.4l0.7,0.2
		c0.2,0.2,0.5,0.3,0.9,0.5h0.1l0.4,0.2c0.1,0.1,0.2,0.1,0.2,0.2l0,0l0,0c0,0,0,0,0.1,0l0.2,0.2l0.6,0.5h0.5l0.2-0.2c0,0,0,0,0.1,0
		c0.2-0.1,0.4-0.3,0.4-0.5l0.3-0.5l0.5-0.5l0,0c0-0.1,0.1-0.2,0.2-0.2c0,0,0-0.1,0.1-0.1l0.2-0.4v-0.1c0-0.1,0.1-0.1,0.1-0.2
		c0,0,0,0,0.1-0.1c0,0,0,0,0.1-0.1s0.1-0.2,0.1-0.2l0.1-0.1c0.1-0.1,0.2-0.2,0.2-0.5c0-0.1,0-0.1,0.1-0.2c0.2-0.5,0.3-0.7,0.3-0.8
		l0,0c0-0.1,0-0.2,0.1-0.4c0,0,0-0.1,0.1-0.1l0.1-0.1c0.1-0.1,0.1-0.2,0.1-0.2V24c0-0.2,0-0.2,0-0.4c0-0.1,0.1-0.2,0.1-0.3
		c0,0,0,0,0-0.1l0.1-0.7l0.1-1l0.1-1.1v-1.7l0.2-2.9v-3.8l-0.1-1.1l-0.1-1.1c0-0.2-0.1-0.7-0.2-0.8l-0.3-0.5l-0.5-0.5l-0.5-0.3
		l-0.2-0.2l0.4-0.2l0.8-0.2l0.5-0.2l1.6-0.4l0.5-0.1H23l0.5,0.1l0.7,0.1L24.7,7L25.1,7l0.6,0.2l0.5,0.1l0.4,0.1h1.4
		c0.2,0,0.5-0.1,0.7-0.3l0,0c0-0.1,0.2-0.3,0.5-0.3l0,0l0.2-0.2l0.2-0.2V6l-0.1-0.3l-0.1-0.2V5.4c-0.1-0.2-0.4-0.5-0.5-0.8
		c0,0,0-0.1-0.1-0.1l-0.3-0.4l-0.4-0.3c-0.2-0.1-0.5-0.2-0.8-0.5c-0.1,0-0.2-0.1-0.3-0.2l-0.1-0.1L26.3,3L24,2.9h-2.9L19.7,3
		l-4.3,0.5L14,3.6l-0.7,0.1l-1.2,0.2L9.8,4.5c-0.3,0-0.6,0-0.8,0.2L8.1,4.9L7.5,5.1L5.7,5.7L5.2,5.9C5,6,4.4,6.1,4.1,6.1H2.1z" />
	</g>
</svg>
